<svg id="visual" viewBox="0 0 900 600" width="900" height="600" xmlns="http://www.w3.org/2000/svg" xmlns:xlink="http://www.w3.org/1999/xlink" version="1.1"><g stroke-width="1" stroke-linejoin="bevel"><path d="M432 311L462 383L465 285Z" fill="#000000" stroke="#000000"></path><path d="M432 311L436 419L462 383Z" fill="#000000" stroke="#000000"></path><path d="M628 405L592 302L462 383Z" fill="#0219b5" stroke="#0219b5"></path><path d="M462 383L592 302L465 285Z" fill="#000084" stroke="#000084"></path><path d="M592 302L529 218L465 285Z" fill="#002ccf" stroke="#002ccf"></path><path d="M465 285L368 210L432 311Z" fill="#0219b5" stroke="#0219b5"></path><path d="M529 218L368 210L465 285Z" fill="#0219b5" stroke="#0219b5"></path><path d="M432 311L264 420L436 419Z" fill="#000084" stroke="#000084"></path><path d="M520 510L628 405L462 383Z" fill="#021fbe" stroke="#021fbe"></path><path d="M436 419L520 510L462 383Z" fill="#0219b5" stroke="#0219b5"></path><path d="M338 483L426 513L436 419Z" fill="#00007a" stroke="#00007a"></path><path d="M436 419L426 513L520 510Z" fill="#000099" stroke="#000099"></path><path d="M368 210L277 299L432 311Z" fill="#0219b5" stroke="#0219b5"></path><path d="M264 420L338 483L436 419Z" fill="#0112ac" stroke="#0112ac"></path><path d="M520 510L620 482L628 405Z" fill="#0226c6" stroke="#0226c6"></path><path d="M731 209L607 173L592 302Z" fill="#00007a" stroke="#00007a"></path><path d="M592 302L607 173L529 218Z" fill="#0219b5" stroke="#0219b5"></path><path d="M529 218L477 118L368 210Z" fill="#002ccf" stroke="#002ccf"></path><path d="M607 173L477 118L529 218Z" fill="#00007a" stroke="#00007a"></path><path d="M477 118L385 127L368 210Z" fill="#021fbe" stroke="#021fbe"></path><path d="M368 210L326 161L277 299Z" fill="#000099" stroke="#000099"></path><path d="M277 299L264 420L432 311Z" fill="#002ccf" stroke="#002ccf"></path><path d="M385 127L326 161L368 210Z" fill="#000084" stroke="#000084"></path><path d="M620 482L715 391L628 405Z" fill="#021fbe" stroke="#021fbe"></path><path d="M628 405L715 391L592 302Z" fill="#0226c6" stroke="#0226c6"></path><path d="M715 391L739 291L592 302Z" fill="#0219b5" stroke="#0219b5"></path><path d="M426 513L514 600L520 510Z" fill="#000084" stroke="#000084"></path><path d="M520 510L604 600L620 482Z" fill="#021fbe" stroke="#021fbe"></path><path d="M620 482L709 535L715 391Z" fill="#000084" stroke="#000084"></path><path d="M407 600L514 600L426 513Z" fill="#00008f" stroke="#00008f"></path><path d="M731 209L637 116L607 173Z" fill="#0219b5" stroke="#0219b5"></path><path d="M607 173L637 116L477 118Z" fill="#00007a" stroke="#00007a"></path><path d="M332 600L426 513L338 483Z" fill="#002ccf" stroke="#002ccf"></path><path d="M332 600L407 600L426 513Z" fill="#00007a" stroke="#00007a"></path><path d="M277 299L202 373L264 420Z" fill="#000084" stroke="#000084"></path><path d="M233 600L332 600L338 483Z" fill="#0009a4" stroke="#0009a4"></path><path d="M203 286L202 373L277 299Z" fill="#000099" stroke="#000099"></path><path d="M225 208L203 286L277 299Z" fill="#0226c6" stroke="#0226c6"></path><path d="M326 161L225 208L277 299Z" fill="#0219b5" stroke="#0219b5"></path><path d="M231 99L225 208L326 161Z" fill="#00008f" stroke="#00008f"></path><path d="M739 291L731 209L592 302Z" fill="#021fbe" stroke="#021fbe"></path><path d="M514 600L604 600L520 510Z" fill="#0112ac" stroke="#0112ac"></path><path d="M174 485L338 483L264 420Z" fill="#000000" stroke="#000000"></path><path d="M604 600L709 535L620 482Z" fill="#0112ac" stroke="#0112ac"></path><path d="M715 391L798 363L739 291Z" fill="#00007a" stroke="#00007a"></path><path d="M413 0L293 84L385 127Z" fill="#00008f" stroke="#00008f"></path><path d="M385 127L293 84L326 161Z" fill="#000099" stroke="#000099"></path><path d="M413 0L385 127L477 118Z" fill="#000000" stroke="#000000"></path><path d="M816 479L798 363L715 391Z" fill="#00007a" stroke="#00007a"></path><path d="M739 291L806 239L731 209Z" fill="#000000" stroke="#000000"></path><path d="M798 363L806 267L739 291Z" fill="#0219b5" stroke="#0219b5"></path><path d="M731 209L700 76L637 116Z" fill="#021fbe" stroke="#021fbe"></path><path d="M632 0L515 0L637 116Z" fill="#0112ac" stroke="#0112ac"></path><path d="M637 116L515 0L477 118Z" fill="#0112ac" stroke="#0112ac"></path><path d="M131 394L174 485L202 373Z" fill="#0009a4" stroke="#0009a4"></path><path d="M202 373L174 485L264 420Z" fill="#000084" stroke="#000084"></path><path d="M604 600L690 600L709 535Z" fill="#000000" stroke="#000000"></path><path d="M709 535L816 479L715 391Z" fill="#00008f" stroke="#00008f"></path><path d="M515 0L413 0L477 118Z" fill="#0219b5" stroke="#0219b5"></path><path d="M269 0L231 99L293 84Z" fill="#002ccf" stroke="#002ccf"></path><path d="M293 84L231 99L326 161Z" fill="#0009a4" stroke="#0009a4"></path><path d="M73 275L131 394L203 286Z" fill="#002ccf" stroke="#002ccf"></path><path d="M763 80L700 76L731 209Z" fill="#00007a" stroke="#00007a"></path><path d="M806 267L806 239L739 291Z" fill="#0226c6" stroke="#0226c6"></path><path d="M203 286L131 394L202 373Z" fill="#00008f" stroke="#00008f"></path><path d="M73 275L203 286L82 228Z" fill="#0219b5" stroke="#0219b5"></path><path d="M174 485L233 600L338 483Z" fill="#0112ac" stroke="#0112ac"></path><path d="M766 600L816 479L709 535Z" fill="#002ccf" stroke="#002ccf"></path><path d="M798 363L900 279L806 267Z" fill="#000000" stroke="#000000"></path><path d="M806 267L900 233L806 239Z" fill="#000000" stroke="#000000"></path><path d="M700 76L632 0L637 116Z" fill="#0219b5" stroke="#0219b5"></path><path d="M806 239L763 80L731 209Z" fill="#000000" stroke="#000000"></path><path d="M700 76L716 0L632 0Z" fill="#000084" stroke="#000084"></path><path d="M690 600L766 600L709 535Z" fill="#00007a" stroke="#00007a"></path><path d="M413 0L269 0L293 84Z" fill="#0219b5" stroke="#0219b5"></path><path d="M82 228L225 208L231 99Z" fill="#000084" stroke="#000084"></path><path d="M82 228L203 286L225 208Z" fill="#0112ac" stroke="#0112ac"></path><path d="M131 394L67 523L174 485Z" fill="#021fbe" stroke="#021fbe"></path><path d="M61 86L82 228L231 99Z" fill="#00008f" stroke="#00008f"></path><path d="M763 80L716 0L700 76Z" fill="#021fbe" stroke="#021fbe"></path><path d="M900 435L798 363L816 479Z" fill="#0112ac" stroke="#0112ac"></path><path d="M900 435L900 279L798 363Z" fill="#00008f" stroke="#00008f"></path><path d="M806 239L900 80L763 80Z" fill="#000000" stroke="#000000"></path><path d="M763 80L833 0L716 0Z" fill="#0009a4" stroke="#0009a4"></path><path d="M269 0L212 0L231 99Z" fill="#000084" stroke="#000084"></path><path d="M900 529L900 435L816 479Z" fill="#002ccf" stroke="#002ccf"></path><path d="M900 279L900 233L806 267Z" fill="#000099" stroke="#000099"></path><path d="M0 439L67 523L131 394Z" fill="#0219b5" stroke="#0219b5"></path><path d="M174 485L111 600L233 600Z" fill="#0219b5" stroke="#0219b5"></path><path d="M67 523L111 600L174 485Z" fill="#002ccf" stroke="#002ccf"></path><path d="M766 600L900 529L816 479Z" fill="#0219b5" stroke="#0219b5"></path><path d="M0 235L0 315L73 275Z" fill="#000084" stroke="#000084"></path><path d="M73 275L0 315L131 394Z" fill="#0226c6" stroke="#0226c6"></path><path d="M0 235L73 275L82 228Z" fill="#00007a" stroke="#00007a"></path><path d="M98 0L61 86L231 99Z" fill="#00008f" stroke="#00008f"></path><path d="M0 117L0 235L82 228Z" fill="#000084" stroke="#000084"></path><path d="M900 80L833 0L763 80Z" fill="#000099" stroke="#000099"></path><path d="M0 315L0 439L131 394Z" fill="#000099" stroke="#000099"></path><path d="M67 523L0 600L111 600Z" fill="#002ccf" stroke="#002ccf"></path><path d="M900 233L900 80L806 239Z" fill="#021fbe" stroke="#021fbe"></path><path d="M766 600L900 600L900 529Z" fill="#0009a4" stroke="#0009a4"></path><path d="M0 439L0 485L67 523Z" fill="#0009a4" stroke="#0009a4"></path><path d="M212 0L98 0L231 99Z" fill="#002ccf" stroke="#002ccf"></path><path d="M0 0L0 117L61 86Z" fill="#0219b5" stroke="#0219b5"></path><path d="M61 86L0 117L82 228Z" fill="#002ccf" stroke="#002ccf"></path><path d="M900 80L900 0L833 0Z" fill="#000099" stroke="#000099"></path><path d="M0 485L0 600L67 523Z" fill="#00008f" stroke="#00008f"></path><path d="M98 0L0 0L61 86Z" fill="#0219b5" stroke="#0219b5"></path></g></svg>